<svg width="1600" height="1200" viewBox="0 0 1600 1200" fill="none" xmlns="http://www.w3.org/2000/svg">
  <g opacity="0.55" stroke="#D5CEB6" stroke-width="1.25">
    <path d="M-40 127C133 122 142 70 264 70C382 70 447 174 566 174C713 174 731 88 880 88C1030 88 1076 192 1222 192C1341 192 1401 145 1640 145" />
    <path d="M-20 183C150 178 204 120 325 120C442 120 503 225 628 225C782 225 825 145 968 145C1122 145 1174 250 1319 250C1434 250 1499 201 1645 201" />
    <path d="M-15 245C109 245 175 191 291 191C414 191 501 290 628 290C768 290 806 212 944 212C1093 212 1185 322 1304 322C1409 322 1487 278 1631 278" />
    <path d="M-49 320C89 320 149 257 274 257C393 257 474 361 610 361C764 361 823 290 962 290C1104 290 1159 387 1279 387C1422 387 1490 330 1643 330" />
    <path d="M-55 392C104 392 167 335 303 335C445 335 492 428 651 428C796 428 845 349 984 349C1142 349 1202 455 1322 455C1452 455 1513 411 1648 411" />
    <path d="M-70 468C86 468 150 402 294 402C445 402 529 506 655 506C794 506 851 433 979 433C1127 433 1196 529 1338 529C1463 529 1522 485 1632 485" />
    <path d="M-44 550C104 550 197 485 318 485C445 485 537 580 664 580C805 580 847 517 1000 517C1150 517 1206 618 1357 618C1456 618 1532 571 1636 571" />
    <path d="M-48 632C118 632 165 560 335 560C481 560 546 652 682 652C818 652 873 598 1022 598C1168 598 1230 698 1364 698C1481 698 1543 646 1648 646" />
    <path d="M-60 713C113 713 192 649 344 649C487 649 542 736 707 736C833 736 893 670 1056 670C1188 670 1270 770 1386 770C1488 770 1556 719 1640 719" />
    <path d="M-63 796C106 796 164 726 353 726C492 726 579 827 719 827C851 827 915 752 1065 752C1206 752 1263 846 1410 846C1511 846 1574 792 1647 792" />
    <path d="M-26 883C122 883 183 802 359 802C509 802 585 893 735 893C879 893 944 821 1087 821C1219 821 1291 914 1427 914C1514 914 1575 862 1649 862" />
    <path d="M-45 972C89 972 188 903 374 903C514 903 590 995 749 995C881 995 952 924 1090 924C1246 924 1321 1014 1448 1014C1525 1014 1583 967 1658 967" />
    <path d="M-72 1059C111 1059 192 987 403 987C542 987 630 1083 759 1083C895 1083 975 1008 1117 1008C1277 1008 1329 1093 1459 1093C1544 1093 1608 1041 1680 1041" />
  </g>
</svg>
